<?xml version="1.0" ?><!DOCTYPE svg  PUBLIC '-//W3C//DTD SVG 1.1//EN'  'http://www.w3.org/Graphics/SVG/1.1/DTD/svg11.dtd'><svg enable-background="new 0 0 500 500" height="500px" id="Layer_1" version="1.1" viewBox="0 0 500 500" width="500px" xml:space="preserve" xmlns="http://www.w3.org/2000/svg" xmlns:xlink="http://www.w3.org/1999/xlink"><path clip-rule="evenodd" d="M238.465,66.293c6.086-4.454,13.528-7.088,21.622-7.088  c20.079,0,36.341,16.264,36.341,36.342v36.341c0,10,8.18,18.172,18.172,18.172h109.025c20.079,0,36.341,16.262,36.341,36.34v127.197  c0,20.079-16.262,36.341-36.341,36.341H314.6c-9.992,0-18.172,8.182-18.172,18.173v36.341c0,20.078-16.262,36.344-36.341,36.344  c-8.094,0-15.536-2.636-21.622-7.092L55.388,282.252c-17.808-17.81-17.808-46.698,0-64.505L238.465,66.293z" fill="#ffffff" fill-rule="evenodd"/></svg>