<?xml version="1.0" ?><!DOCTYPE svg  PUBLIC '-//W3C//DTD SVG 1.1//EN'  'http://www.w3.org/Graphics/SVG/1.1/DTD/svg11.dtd'><svg enable-background="new 0 0 500 500" height="500px" id="Layer_1" version="1.1" viewBox="0 0 500 500" width="500px" xml:space="preserve" xmlns="http://www.w3.org/2000/svg" xmlns:xlink="http://www.w3.org/1999/xlink"><path fill="#41cd52" clip-rule="evenodd" d="M195.448,250.001c0,30.078,24.434,54.513,54.513,54.513  c30.078,0,54.513-24.435,54.513-54.513v-0.453c-5.819,5.905-13.805,9.539-22.715,9.539c-17.539,0-31.798-14.264-31.798-31.799  c0-12.626,7.443-23.623,18.08-28.712c-5.631-1.997-11.718-3.087-18.08-3.087C219.882,195.488,195.448,219.926,195.448,250.001z   M455.839,219.017c-33.804-42.97-116.113-114.384-205.79-114.384c-89.762,0-172.162,71.415-205.967,114.384  c-7.63,9.814-11.809,20.444-12.083,30.984c0.275,10.541,4.453,21.171,12.083,30.983c33.806,42.979,116.115,114.383,205.879,114.383  s172.074-71.404,205.878-114.383c7.718-9.813,11.898-20.442,12.173-30.983C467.737,239.461,463.557,228.831,455.839,219.017z   M249.961,340.854c-50.147,0-90.855-40.703-90.855-90.853c0-50.151,40.708-90.855,90.855-90.855  c50.146,0,90.854,40.704,90.854,90.855C340.814,300.15,300.106,340.854,249.961,340.854z" fill-rule="evenodd"/></svg>
