<?xml version="1.0" encoding="UTF-8" standalone="no"?>
<svg
   xmlns:dc="http://purl.org/dc/elements/1.1/"
   xmlns:cc="http://creativecommons.org/ns#"
   xmlns:rdf="http://www.w3.org/1999/02/22-rdf-syntax-ns#"
   xmlns:svg="http://www.w3.org/2000/svg"
   xmlns="http://www.w3.org/2000/svg"
   xmlns:sodipodi="http://sodipodi.sourceforge.net/DTD/sodipodi-0.dtd"
   xmlns:inkscape="http://www.inkscape.org/namespaces/inkscape"
   id="Layer_1"
   style="enable-background:new 0 0 24 24;"
   version="1.1"
   viewBox="0 0 24 24"
   xml:space="preserve"
   sodipodi:docname="logo.svg"
   inkscape:version="0.92.4 5da689c313, 2019-01-14"><metadata
     id="metadata38"><rdf:RDF><cc:Work
         rdf:about=""><dc:format>image/svg+xml</dc:format><dc:type
           rdf:resource="http://purl.org/dc/dcmitype/StillImage" /></cc:Work></rdf:RDF></metadata><defs
     id="defs36" /><sodipodi:namedview
     pagecolor="#ffffff"
     bordercolor="#666666"
     borderopacity="1"
     objecttolerance="10"
     gridtolerance="10"
     guidetolerance="10"
     inkscape:pageopacity="0"
     inkscape:pageshadow="2"
     inkscape:window-width="1920"
     inkscape:window-height="1015"
     id="namedview34"
     showgrid="false"
     inkscape:zoom="19.666667"
     inkscape:cx="19.35175"
     inkscape:cy="14.163644"
     inkscape:window-x="0"
     inkscape:window-y="0"
     inkscape:window-maximized="1"
     inkscape:current-layer="Layer_1" /><path
     d="M21.956,23.293l-0.618-4.332c-0.237-1.658-0.357-3.347-0.357-5.021V9.29  c0-4.894-3.687-8.967-8.394-9.272c-5.21-0.329-9.588,3.82-9.588,8.981v4.941c0,1.674-0.12,3.363-0.357,5.021l-0.637,4.467  c-0.021,0.144,0.022,0.289,0.117,0.399c0.095,0.109,0.233,0.172,0.378,0.172c0.776,0,1.182-0.342,1.509-0.617  c0.274-0.23,0.456-0.383,0.868-0.383c0.412,0,0.593,0.152,0.867,0.383c0.326,0.275,0.733,0.617,1.509,0.617  c0.776,0,1.182-0.342,1.509-0.618c0.273-0.23,0.454-0.382,0.864-0.382s0.591,0.152,0.864,0.382c0.327,0.275,0.733,0.618,1.508,0.618  c0.776,0,1.181-0.342,1.508-0.618c0.273-0.23,0.454-0.382,0.864-0.382c0.411,0,0.59,0.152,0.863,0.382  c0.326,0.275,0.732,0.618,1.506,0.618c0.775,0,1.18-0.343,1.505-0.618c0.272-0.23,0.453-0.382,0.861-0.382  c0.41,0,0.59,0.152,0.863,0.382c0.327,0.275,0.733,0.618,1.508,0.618c0.008,0.001,0.016,0.001,0.019,0c0.276,0,0.5-0.224,0.5-0.5  C22,23.426,21.984,23.356,21.956,23.293z M8.993,10.999c-0.737,0-0.999-1.033-0.999-2s0.262-2,0.999-2c0.736,0,0.999,1.033,0.999,2  S9.73,10.999,8.993,10.999z M14.987,10.999c-0.737,0-0.999-1.033-0.999-2s0.262-2,0.999-2c0.736,0,0.999,1.033,0.999,2  S15.724,10.999,14.987,10.999z"
     id="XMLID_43_"
     style="fill:#41cd52;stroke:none;fill-opacity:1" /><g
     id="g3" /><g
     id="g5" /><g
     id="g7" /><g
     id="g9" /><g
     id="g11" /><g
     id="g13" /><g
     id="g15" /><g
     id="g17" /><g
     id="g19" /><g
     id="g21" /><g
     id="g23" /><g
     id="g25" /><g
     id="g27" /><g
     id="g29" /><g
     id="g31" /><path
     inkscape:connector-curvature="0"
     style="clip-rule:evenodd;fill:#ffffff;fill-opacity:1;fill-rule:evenodd;stroke-width:0.02293047"
     d="M 7,19.666705 C 7,20.127105 7.37294,20.5 7.833295,20.5 h 8.33341 C 16.627105,20.5 17,20.127105 17,19.666705 v -5.62507 c 0,-0.46042 -0.372895,-0.833295 -0.833295,-0.833295 h -8.33339 c -0.460375,0 -0.83329,0.372875 -0.83329,0.833295 v 5.62507 z M 10.066605,16.860475 8.16028,14.9417 c -0.158105,-0.158355 -0.158105,-0.41465 0,-0.572915 0.158495,-0.158385 0.414815,-0.158385 0.572895,0 l 3.04182,3.04567 c 0.12286,0.12084 0.32506,0.12084 0.445975,0 l 3.045645,-3.04567 c 0.15822,-0.158385 0.41461,-0.158385 0.57292,0 0.15831,0.158265 0.15831,0.41456 0,0.572915 l -1.908365,1.918775 1.908365,1.90614 c 0.15831,0.15822 0.15831,0.414585 0,0.572895 -0.15831,0.15822 -0.4147,0.15822 -0.57292,0 l -1.90632,-1.90412 c 0,0 -0.595715,0.60628 -0.70397,0.714605 -0.168835,0.164525 -0.402265,0.26668 -0.656335,0.26668 -0.25838,0 -0.491745,-0.104175 -0.6604,-0.27301 -0.1105,-0.10828 -0.702105,-0.708275 -0.702105,-0.708275 l -1.90431,1.90412 c -0.158105,0.15822 -0.4144,0.15822 -0.572895,0 -0.158105,-0.15831 -0.158105,-0.414675 0,-0.572895 z"
     id="path2" /></svg>