<?xml version="1.0" ?><!DOCTYPE svg  PUBLIC '-//W3C//DTD SVG 1.1//EN'  'http://www.w3.org/Graphics/SVG/1.1/DTD/svg11.dtd'><svg enable-background="new 0 0 500 500" height="500px" id="Layer_1" version="1.1" viewBox="0 0 500 500" width="500px" xml:space="preserve" xmlns="http://www.w3.org/2000/svg" xmlns:xlink="http://www.w3.org/1999/xlink"><path clip-rule="evenodd" d="M468.051,222.657c0-12.724-5.27-24.257-13.717-32.527  L282.253,45.304c-17.811-17.807-46.702-17.807-64.505,0L45.666,190.129c-8.448,8.271-13.717,19.803-13.717,32.527v209.054  c0,20.079,16.264,36.341,36.34,36.341h363.421c20.078,0,36.34-16.262,36.34-36.341V222.657z M124.621,186.402h250.758  c11.081,0,19.987,8.905,19.987,19.991v34.523c-0.088,4.359-1.818,8.631-5.181,11.997l-55.966,56.419l83.224,83.127  c6.904,6.904,6.904,18.081,0,24.985s-18.085,6.904-24.985,0l-85.676-85.672H193.034l-85.492,85.672  c-6.907,6.904-18.081,6.904-24.985,0c-6.906-6.904-6.906-18.081,0-24.985l83.131-83.127l-55.875-56.419  c-3.638-3.638-5.363-8.358-5.181-13.177v-33.343C104.632,195.307,113.537,186.402,124.621,186.402z" fill="#41cd52" fill-rule="evenodd"/></svg>