<?xml version="1.0" encoding="UTF-8" standalone="no"?>
<svg
   xmlns:dc="http://purl.org/dc/elements/1.1/"
   xmlns:cc="http://creativecommons.org/ns#"
   xmlns:rdf="http://www.w3.org/1999/02/22-rdf-syntax-ns#"
   xmlns:svg="http://www.w3.org/2000/svg"
   xmlns="http://www.w3.org/2000/svg"
   xmlns:sodipodi="http://sodipodi.sourceforge.net/DTD/sodipodi-0.dtd"
   xmlns:inkscape="http://www.inkscape.org/namespaces/inkscape"
   enable-background="new 0 0 500 500"
   height="500px"
   id="Layer_1"
   version="1.1"
   viewBox="0 0 500 500"
   width="500px"
   xml:space="preserve"
   sodipodi:docname="restore.svg"
   inkscape:version="0.92.4 5da689c313, 2019-01-14"><metadata
     id="metadata9"><rdf:RDF><cc:Work
         rdf:about=""><dc:format>image/svg+xml</dc:format><dc:type
           rdf:resource="http://purl.org/dc/dcmitype/StillImage" /><dc:title></dc:title></cc:Work></rdf:RDF></metadata><defs
     id="defs7" /><sodipodi:namedview
     pagecolor="#ffffff"
     bordercolor="#666666"
     borderopacity="1"
     objecttolerance="10"
     gridtolerance="10"
     guidetolerance="10"
     inkscape:pageopacity="0"
     inkscape:pageshadow="2"
     inkscape:window-width="1920"
     inkscape:window-height="1015"
     id="namedview5"
     showgrid="false"
     inkscape:zoom="0.0834386"
     inkscape:cx="-919.36857"
     inkscape:cy="671.37355"
     inkscape:window-x="0"
     inkscape:window-y="0"
     inkscape:window-maximized="1"
     inkscape:current-layer="Layer_1" /><path
     clip-rule="evenodd"
     d="M418.081,122.802h-59.057V68.29  c0-20.077-16.262-36.34-36.341-36.34H177.316c-20.078,0-36.342,16.264-36.342,36.34v54.513H81.918  c-12.536,0-22.713,10.177-22.713,22.715c0,12.536,10.177,22.713,22.713,22.713h13.629v263.48c0,20.078,16.262,36.34,36.341,36.34  h236.224c20.078,0,36.341-16.262,36.341-36.34v-263.48h13.629c12.535,0,22.715-10.177,22.715-22.713  C440.796,132.979,430.616,122.802,418.081,122.802z M313.598,122.802H186.4V97.367c0-11.083,8.909-19.991,19.991-19.991h87.216  c11.084,0,19.99,8.909,19.99,19.991V122.802z M186.4,186.401v218.051c0,9.992-8.181,18.172-18.17,18.172s-18.17-8.18-18.17-18.172  V186.401c0-9.989,8.18-18.17,18.17-18.17S186.4,176.412,186.4,186.401z M268.172,186.401v218.051  c0,9.992-8.181,18.172-18.172,18.172c-9.99,0-18.17-8.18-18.17-18.172V186.401c0-9.989,8.181-18.17,18.17-18.17  C259.991,168.231,268.172,176.412,268.172,186.401z M349.938,186.401v218.051c0,9.992-8.181,18.172-18.169,18.172  c-9.99,0-18.172-8.18-18.172-18.172V186.401c0-9.989,8.182-18.17,18.172-18.17C341.758,168.231,349.938,176.412,349.938,186.401z"
     fill="#3ab949"
     fill-rule="evenodd"
     id="path2" /><path
     inkscape:connector-curvature="0"
     d="m 187.79515,241.33203 v -49.7609 c 0,-4.97805 -1.90566,-9.95608 -5.69753,-13.76738 -3.79186,-3.79187 -8.76989,-5.67807 -13.74793,-5.67807 -4.97804,0 -9.95607,1.8862 -13.74793,5.67807 L 32.231535,298.52109 154.60176,419.21902 c 3.79186,3.79184 8.76989,5.6975 13.74793,5.6975 4.97804,0 9.95607,-1.90566 13.74793,-5.6975 3.79187,-3.79187 5.69753,-8.78935 5.69753,-13.74795 v -48.39971 c 53.47498,1.32228 111.90856,11.0061 155.56359,77.56789 V 415.1938 c 0,-90.09077 -68.05908,-164.17793 -155.56359,-173.86177 z"
     id="path2-3"
     style="fill:#3ab949;stroke:#ffffff;stroke-width:19.44544983;stroke-opacity:1;fill-opacity:1" /></svg>
