<?xml version="1.0" ?><!DOCTYPE svg  PUBLIC '-//W3C//DTD SVG 1.1//EN'  'http://www.w3.org/Graphics/SVG/1.1/DTD/svg11.dtd'><svg enable-background="new 0 0 500 500" height="500px" id="Layer_1" version="1.1" viewBox="0 0 500 500" width="500px" xml:space="preserve" xmlns="http://www.w3.org/2000/svg" xmlns:xlink="http://www.w3.org/1999/xlink"><path clip-rule="evenodd" d="M31.949,372.155c0,20.078,16.264,36.34,36.34,36.34h363.421  c20.078,0,36.34-16.262,36.34-36.34v-245.31c0-20.079-16.262-36.34-36.34-36.34H68.29c-20.077,0-36.34,16.261-36.34,36.34V372.155z   M165.684,249.775l-83.135-83.678c-6.895-6.906-6.895-18.083,0-24.985c6.912-6.907,18.09-6.907,24.984,0l132.654,132.822  c5.358,5.27,14.176,5.27,19.449,0l132.821-132.822c6.9-6.907,18.081-6.907,24.985,0c6.904,6.902,6.904,18.079,0,24.985  l-83.224,83.678l83.224,83.127c6.904,6.9,6.904,18.08,0,24.984c-6.904,6.9-18.085,6.9-24.985,0l-83.135-83.039  c0,0-25.979,26.44-30.7,31.164c-7.363,7.175-17.543,11.63-28.623,11.63c-11.268,0-21.445-4.543-28.8-11.906  c-4.819-4.722-30.619-30.888-30.619-30.888l-83.047,83.039c-6.895,6.9-18.072,6.9-24.984,0c-6.895-6.904-6.895-18.084,0-24.984  L165.684,249.775z" fill="#3ab949" fill-rule="evenodd"/></svg>
